<svg width="2643" height="1034" xmlns="http://www.w3.org/2000/svg" xmlns:xlink="http://www.w3.org/1999/xlink" xml:space="preserve" overflow="hidden"><defs><clipPath id="clip0"><rect x="1477" y="137" width="2643" height="1034"/></clipPath></defs><g clip-path="url(#clip0)" transform="translate(-1477 -137)"><rect x="1478" y="138" width="2640" height="1031" fill="#FFF0D1"/><g><path d="M2090.57 307.5 2090.57 1062.5M2348.58 307.5 2348.58 1062.5M2606.59 307.5 2606.59 1062.5M2864.59 307.5 2864.59 1062.5M3122.6 307.5 3122.6 1062.5M3380.61 307.5 3380.61 1062.5M3638.5 307.5 3638.5 1062.5" stroke="#D9D9D9" stroke-width="3.4375" stroke-linejoin="round" stroke-miterlimit="10" fill="none"/></g><g><rect x="1833" y="960" width="722" height="53.9999" fill="#E1ACAC"/></g><g><rect x="1833" y="809" width="817" height="54.0003" fill="#DE7C7D"/></g><g><rect x="1833" y="658" width="1009" height="53.9999" fill="#CC2B52"/></g><g><rect x="1833" y="507" width="1472" height="54" fill="#AF1740"/></g><g><path d="M3563.12 410.013 1833 410.013 1833 356.012 3563.12 356.012Z" fill="#740938"/></g><g><path d="M0 0 0.000360892 755" stroke="#D9D9D9" stroke-width="3.4375" stroke-linejoin="round" stroke-miterlimit="10" fill="none" fill-rule="evenodd" transform="matrix(1 0 0 -1 1832.5 1062.5)"/></g><g><text fill="#3B3030" font-family="Aptos Narrow,Aptos Narrow_MSFontService,sans-serif" font-weight="400" font-stretch="semi-condensed" font-size="41" transform="matrix(1 0 0 1 2582.92 1001)">$278</text></g><g><text fill="#3B3030" font-family="Aptos Narrow,Aptos Narrow_MSFontService,sans-serif" font-weight="400" font-stretch="semi-condensed" font-size="41" transform="matrix(1 0 0 1 2677.5 850)">$282</text></g><g><text fill="#3B3030" font-family="Aptos Narrow,Aptos Narrow_MSFontService,sans-serif" font-weight="400" font-stretch="semi-condensed" font-size="41" transform="matrix(1 0 0 1 2869.35 699)">$289</text></g><g><text fill="#3B3030" font-family="Aptos Narrow,Aptos Narrow_MSFontService,sans-serif" font-weight="400" font-stretch="semi-condensed" font-size="41" transform="matrix(1 0 0 1 3332.16 548)">$307</text></g><g><text fill="#3B3030" font-family="Aptos Narrow,Aptos Narrow_MSFontService,sans-serif" font-weight="400" font-stretch="semi-condensed" font-size="41" transform="matrix(1 0 0 1 3590.85 397)">$317</text></g><g><text fill="#3B3030" font-family="Aptos Narrow,Aptos Narrow_MSFontService,sans-serif" font-weight="400" font-stretch="semi-condensed" font-size="41" transform="matrix(1 0 0 1 1790.84 1128)">$250</text></g><g><text fill="#3B3030" font-family="Aptos Narrow,Aptos Narrow_MSFontService,sans-serif" font-weight="400" font-stretch="semi-condensed" font-size="41" transform="matrix(1 0 0 1 2048.89 1128)">$260</text></g><g><text fill="#3B3030" font-family="Aptos Narrow,Aptos Narrow_MSFontService,sans-serif" font-weight="400" font-stretch="semi-condensed" font-size="41" transform="matrix(1 0 0 1 2306.93 1128)">$270</text></g><g><text fill="#3B3030" font-family="Aptos Narrow,Aptos Narrow_MSFontService,sans-serif" font-weight="400" font-stretch="semi-condensed" font-size="41" transform="matrix(1 0 0 1 2564.98 1128)">$280</text></g><g><text fill="#3B3030" font-family="Aptos Narrow,Aptos Narrow_MSFontService,sans-serif" font-weight="400" font-stretch="semi-condensed" font-size="41" transform="matrix(1 0 0 1 2823.02 1128)">$290</text></g><g><text fill="#3B3030" font-family="Aptos Narrow,Aptos Narrow_MSFontService,sans-serif" font-weight="400" font-stretch="semi-condensed" font-size="41" transform="matrix(1 0 0 1 3081.06 1128)">$300</text></g><g><text fill="#3B3030" font-family="Aptos Narrow,Aptos Narrow_MSFontService,sans-serif" font-weight="400" font-stretch="semi-condensed" font-size="41" transform="matrix(1 0 0 1 3339.11 1128)">$310</text></g><g><text fill="#3B3030" font-family="Aptos Narrow,Aptos Narrow_MSFontService,sans-serif" font-weight="400" font-stretch="semi-condensed" font-size="41" transform="matrix(1 0 0 1 3597.15 1128)">$320</text></g><g><text fill="#3B3030" font-family="Aptos Narrow,Aptos Narrow_MSFontService,sans-serif" font-weight="400" font-stretch="semi-condensed" font-size="41" transform="matrix(1 0 0 1 1614.87 999)">Don Flintiff</text></g><g><text fill="#3B3030" font-family="Aptos Narrow,Aptos Narrow_MSFontService,sans-serif" font-weight="400" font-stretch="semi-condensed" font-size="41" transform="matrix(1 0 0 1 1535.76 848)">Nealson Cuttler</text></g><g><text fill="#3B3030" font-family="Aptos Narrow,Aptos Narrow_MSFontService,sans-serif" font-weight="400" font-stretch="semi-condensed" font-size="41" transform="matrix(1 0 0 1 1628.62 697)">Terri Farra</text></g><g><text fill="#3B3030" font-family="Aptos Narrow,Aptos Narrow_MSFontService,sans-serif" font-weight="400" font-stretch="semi-condensed" font-size="41" transform="matrix(1 0 0 1 1507.92 546)">Brenn Dundredge</text></g><g><text fill="#3B3030" font-family="Aptos Narrow,Aptos Narrow_MSFontService,sans-serif" font-weight="400" font-stretch="semi-condensed" font-size="41" transform="matrix(1 0 0 1 1578.52 395)">Allis Wilmore</text></g><g><text fill="#3B3030" font-family="Aptos Display,Aptos Display_MSFontService,sans-serif" font-weight="700" font-size="64" transform="matrix(1 0 0 1 2531.15 232)">Top Five Customers</text></g><g><rect x="3753" y="547" width="22" height="23.0001" fill="#E1ACAC"/></g><g><text fill="#3B3030" font-family="Aptos Narrow,Aptos Narrow_MSFontService,sans-serif" font-weight="400" font-stretch="semi-condensed" font-size="41" transform="matrix(1 0 0 1 3785.08 570)">Don Flintiff</text></g><g><rect x="3753" y="624" width="22" height="23.0001" fill="#DE7C7D"/></g><g><text fill="#3B3030" font-family="Aptos Narrow,Aptos Narrow_MSFontService,sans-serif" font-weight="400" font-stretch="semi-condensed" font-size="41" transform="matrix(1 0 0 1 3785.08 647)">Nealson Cuttler</text></g><g><rect x="3753" y="702" width="22" height="22" fill="#CC2B52"/></g><g><text fill="#3B3030" font-family="Aptos Narrow,Aptos Narrow_MSFontService,sans-serif" font-weight="400" font-stretch="semi-condensed" font-size="41" transform="matrix(1 0 0 1 3785.08 724)">Terri Farra</text></g><g><rect x="3753" y="779" width="22" height="23.0001" fill="#AF1740"/></g><g><text fill="#3B3030" font-family="Aptos Narrow,Aptos Narrow_MSFontService,sans-serif" font-weight="400" font-stretch="semi-condensed" font-size="41" transform="matrix(1 0 0 1 3785.08 802)">Brenn Dundredge</text></g><g><rect x="3753" y="856" width="22" height="23.0001" fill="#740938"/></g><g><text fill="#3B3030" font-family="Aptos Narrow,Aptos Narrow_MSFontService,sans-serif" font-weight="400" font-stretch="semi-condensed" font-size="41" transform="matrix(1 0 0 1 3785.08 879)">Allis Wilmore</text></g><rect x="1478.5" y="138.5" width="2640" height="1031" stroke="#D9D9D9" stroke-width="3.4375" stroke-linejoin="round" stroke-miterlimit="10" fill="none"/></g></svg>