<svg width="2643" height="1309" xmlns="http://www.w3.org/2000/svg" xmlns:xlink="http://www.w3.org/1999/xlink" xml:space="preserve" overflow="hidden"><defs><clipPath id="clip0"><rect x="3234" y="824" width="2643" height="1309"/></clipPath></defs><g clip-path="url(#clip0)" transform="translate(-3234 -824)"><rect x="3235" y="825" width="2640" height="1306" fill="#FFF0D1"/><g><path d="M3462.5 1843.56 5522.5 1843.56M3462.5 1737.56 5522.5 1737.56M3462.5 1631.55 5522.5 1631.55M3462.5 1525.55 5522.5 1525.55M3462.5 1419.55 5522.5 1419.55M3462.5 1312.54 5522.5 1312.54M3462.5 1206.54 5522.5 1206.54M3462.5 1100.54 5522.5 1100.54M3462.5 994.5 5522.5 994.5" stroke="#D9D9D9" stroke-width="3.4375" stroke-linejoin="round" stroke-miterlimit="10" fill="none"/></g><g><path d="M3462.5 1949.5 5522.5 1949.5" stroke="#D9D9D9" stroke-width="3.4375" stroke-linejoin="round" stroke-miterlimit="10" fill="none" fill-rule="evenodd"/></g><g><path d="M3462.5 1949.5 3462.5 2028.5M4024.63 1949.5 4024.63 2028.5M4586.65 1949.5 4586.65 2028.5M5147.67 1949.5 5147.67 2028.5M5522.5 1949.5 5522.5 2028.5" stroke="#D9D9D9" stroke-width="3.4375" stroke-linejoin="round" stroke-miterlimit="10" fill="none"/></g><g><path d="M3462.5 2028.5 3462.5 2108.5M4024.63 2028.5 4024.63 2108.5M4586.65 2028.5 4586.65 2108.5M5147.67 2028.5 5147.67 2108.5M5522.5 2028.5 5522.5 2108.5" stroke="#D9D9D9" stroke-width="3.4375" stroke-linejoin="round" stroke-miterlimit="10" fill="none"/></g><g><path d="M3486 1751.06 3533.12 1682.06 3579.12 1711.06 3626.12 1623.05 3673.12 1892.06 3720.12 1776.06 3767.12 1583.05 3814.13 1594.05 3860.13 1760.06 3907.13 1629.05 3954.13 1617.05 4001.13 1667.05 4048.13 1899.06 4094.13 1159.04 4141.14 1811.06 4188.14 1920.06 4235.14 1679.06 4282.14 1329.04 4329.14 1493.05 4375.14 1925 4422.15 1815.06 4469.15 1550.05 4516.15 1403.05 4563.15 1847.06 4610.15 1675.05 4656.15 1586.05 4703.15 1506.05 4750.16 1841.06 4797.16 1700.06 4844.16 1493.05 4890.16 1834.06 4937.16 1644.05 4984.16 1058 5031.17 1632.05 5078.17 1606.05 5125.17 1526.05 5171.17 1830.06 5218.17 1827.06 5265.17 1655.05 5312.17 1739.06 5359.18 1744.06 5405.18 1758.06 5452.18 1687.06 5499 1826.06" stroke="#A47E3B" stroke-width="10.3125" stroke-linecap="round" stroke-linejoin="round" stroke-miterlimit="10" fill="none"/></g><g><path d="M3486 1625.05 3533.12 1812.06 3579.12 1579.05 3626.12 1227 3673.12 1861.06 3720.12 1230.04 3767.12 1659.05 3814.13 1874.06 3860.13 1773.06 3907.13 1786.06 3954.13 1882.06 4001.13 1391.05 4048.13 1879.06 4094.13 1494.05 4141.14 1661.05 4188.14 1581.05 4235.14 1375.05 4282.14 1570.05 4329.14 1708.06 4375.14 1867.06 4422.15 1742.06 4469.15 1394.05 4516.15 1798.06 4563.15 1435.05 4610.15 1801.06 4656.15 1648.05 4703.15 1453.05 4750.16 1692.06 4797.16 1808.06 4844.16 1805.06 4890.16 1532.05 4937.16 1643.05 4984.16 1515.05 5031.17 1673.05 5078.17 1349.04 5125.17 1792.06 5171.17 1773.06 5218.17 1807.06 5265.17 1763.06 5312.17 1642.05 5359.18 1724.06 5405.18 1497.05 5452.18 1688.06 5499 1905" stroke="#61481C" stroke-width="10.3125" stroke-linecap="round" stroke-linejoin="round" stroke-miterlimit="10" fill="none"/></g><g><path d="M3486 1723.06 3533.12 1489.05 3579.12 1609.05 3626.12 1383.05 3673.12 1744.06 3720.12 1768.06 3767.12 1754.06 3814.13 1807.06 3860.13 1483.05 3907.13 1721.06 3954.13 1577.05 4001.13 1751.06 4048.13 1658.05 4094.13 1743.06 4141.14 1651.05 4188.14 1793.06 4235.14 1861.06 4282.14 1572.05 4329.14 1699.06 4375.14 1885.06 4422.15 1855.06 4469.15 1482.05 4516.15 1581.05 4563.15 1849.06 4610.15 1653.05 4656.15 1682.06 4703.15 1520.05 4750.16 1361.04 4797.16 1666.05 4844.16 1727.06 4890.16 1884.06 4937.16 1816.06 4984.16 1767.06 5031.17 1329.04 5078.17 1379.05 5125.17 1538.05 5171.17 1055 5218.17 1852.06 5265.17 1459.05 5312.17 1855.06 5359.18 1639.05 5405.18 1769.06 5452.18 1662.05 5499 1933" stroke="#C65D7B" stroke-width="10.3125" stroke-linecap="round" stroke-linejoin="round" stroke-miterlimit="10" fill="none"/></g><g><path d="M3486 1819.06 3533.12 1767.06 3579.12 1815.06 3626.12 1781.06 3673.12 1877.06 3720.12 1554.05 3767.12 1736.06 3814.13 1773.06 3860.13 1427 3907.13 1723.06 3954.13 1847.06 4001.13 1726.06 4048.13 1759.06 4094.13 1493.05 4141.14 1704.06 4188.14 1695.06 4235.14 1886.06 4282.14 1800.06 4329.14 1510.05 4375.14 1801.06 4422.15 1628.05 4469.15 1764.06 4516.15 1839.06 4563.15 1867.06 4610.15 1779.06 4656.15 1864.06 4703.15 1681.06 4750.16 1836.06 4797.16 1660.05 4844.16 1855.06 4890.16 1738.06 4937.16 1552.05 4984.16 1714.06 5031.17 1677.05 5078.17 1748.06 5125.17 1724.06 5171.17 1794.06 5218.17 1892 5265.17 1526.05 5312.17 1737.06 5359.18 1626.05 5405.18 1547.05 5452.18 1799.06 5499 1874.06" stroke="#E6B325" stroke-width="10.3125" stroke-linecap="round" stroke-linejoin="round" stroke-miterlimit="10" fill="none"/></g><g><text fill="#795757" font-family="Aptos Narrow,Aptos Narrow_MSFontService,sans-serif" font-weight="400" font-stretch="semi-condensed" font-size="41" transform="matrix(1 0 0 1 3403.47 1961)">0</text></g><g><text fill="#795757" font-family="Aptos Narrow,Aptos Narrow_MSFontService,sans-serif" font-weight="400" font-stretch="semi-condensed" font-size="41" transform="matrix(1 0 0 1 3361.67 1855)">100</text></g><g><text fill="#795757" font-family="Aptos Narrow,Aptos Narrow_MSFontService,sans-serif" font-weight="400" font-stretch="semi-condensed" font-size="41" transform="matrix(1 0 0 1 3361.67 1749)">200</text></g><g><text fill="#795757" font-family="Aptos Narrow,Aptos Narrow_MSFontService,sans-serif" font-weight="400" font-stretch="semi-condensed" font-size="41" transform="matrix(1 0 0 1 3361.67 1643)">300</text></g><g><text fill="#795757" font-family="Aptos Narrow,Aptos Narrow_MSFontService,sans-serif" font-weight="400" font-stretch="semi-condensed" font-size="41" transform="matrix(1 0 0 1 3361.67 1537)">400</text></g><g><text fill="#795757" font-family="Aptos Narrow,Aptos Narrow_MSFontService,sans-serif" font-weight="400" font-stretch="semi-condensed" font-size="41" transform="matrix(1 0 0 1 3361.67 1431)">500</text></g><g><text fill="#795757" font-family="Aptos Narrow,Aptos Narrow_MSFontService,sans-serif" font-weight="400" font-stretch="semi-condensed" font-size="41" transform="matrix(1 0 0 1 3361.67 1325)">600</text></g><g><text fill="#795757" font-family="Aptos Narrow,Aptos Narrow_MSFontService,sans-serif" font-weight="400" font-stretch="semi-condensed" font-size="41" transform="matrix(1 0 0 1 3361.67 1219)">700</text></g><g><text fill="#795757" font-family="Aptos Narrow,Aptos Narrow_MSFontService,sans-serif" font-weight="400" font-stretch="semi-condensed" font-size="41" transform="matrix(1 0 0 1 3361.67 1113)">800</text></g><g><text fill="#795757" font-family="Aptos Narrow,Aptos Narrow_MSFontService,sans-serif" font-weight="400" font-stretch="semi-condensed" font-size="41" transform="matrix(1 0 0 1 3361.67 1007)">900</text></g><g><text fill="#795757" font-family="Aptos Narrow,Aptos Narrow_MSFontService,sans-serif" font-weight="400" font-stretch="semi-condensed" font-size="41" transform="matrix(1 0 0 1 3459.07 2014)">Jan</text></g><g><text fill="#795757" font-family="Aptos Narrow,Aptos Narrow_MSFontService,sans-serif" font-weight="400" font-stretch="semi-condensed" font-size="41" transform="matrix(1 0 0 1 3548.2 2014)">Mar</text></g><g><text fill="#795757" font-family="Aptos Narrow,Aptos Narrow_MSFontService,sans-serif" font-weight="400" font-stretch="semi-condensed" font-size="41" transform="matrix(1 0 0 1 3639.68 2014)">May</text></g><g><text fill="#795757" font-family="Aptos Narrow,Aptos Narrow_MSFontService,sans-serif" font-weight="400" font-stretch="semi-condensed" font-size="41" transform="matrix(1 0 0 1 3745 2014)">Jul</text></g><g><text fill="#795757" font-family="Aptos Narrow,Aptos Narrow_MSFontService,sans-serif" font-weight="400" font-stretch="semi-condensed" font-size="41" transform="matrix(1 0 0 1 3829.15 2014)">Sep</text></g><g><text fill="#795757" font-family="Aptos Narrow,Aptos Narrow_MSFontService,sans-serif" font-weight="400" font-stretch="semi-condensed" font-size="41" transform="matrix(1 0 0 1 3921.87 2014)">Nov</text></g><g><text fill="#795757" font-family="Aptos Narrow,Aptos Narrow_MSFontService,sans-serif" font-weight="400" font-stretch="semi-condensed" font-size="41" transform="matrix(1 0 0 1 4020.97 2014)">Jan</text></g><g><text fill="#795757" font-family="Aptos Narrow,Aptos Narrow_MSFontService,sans-serif" font-weight="400" font-stretch="semi-condensed" font-size="41" transform="matrix(1 0 0 1 4110.09 2014)">Mar</text></g><g><text fill="#795757" font-family="Aptos Narrow,Aptos Narrow_MSFontService,sans-serif" font-weight="400" font-stretch="semi-condensed" font-size="41" transform="matrix(1 0 0 1 4201.58 2014)">May</text></g><g><text fill="#795757" font-family="Aptos Narrow,Aptos Narrow_MSFontService,sans-serif" font-weight="400" font-stretch="semi-condensed" font-size="41" transform="matrix(1 0 0 1 4306.89 2014)">Jul</text></g><g><text fill="#795757" font-family="Aptos Narrow,Aptos Narrow_MSFontService,sans-serif" font-weight="400" font-stretch="semi-condensed" font-size="41" transform="matrix(1 0 0 1 4391.04 2014)">Sep</text></g><g><text fill="#795757" font-family="Aptos Narrow,Aptos Narrow_MSFontService,sans-serif" font-weight="400" font-stretch="semi-condensed" font-size="41" transform="matrix(1 0 0 1 4483.76 2014)">Nov</text></g><g><text fill="#795757" font-family="Aptos Narrow,Aptos Narrow_MSFontService,sans-serif" font-weight="400" font-stretch="semi-condensed" font-size="41" transform="matrix(1 0 0 1 4582.86 2014)">Jan</text></g><g><text fill="#795757" font-family="Aptos Narrow,Aptos Narrow_MSFontService,sans-serif" font-weight="400" font-stretch="semi-condensed" font-size="41" transform="matrix(1 0 0 1 4671.99 2014)">Mar</text></g><g><text fill="#795757" font-family="Aptos Narrow,Aptos Narrow_MSFontService,sans-serif" font-weight="400" font-stretch="semi-condensed" font-size="41" transform="matrix(1 0 0 1 4763.47 2014)">May</text></g><g><text fill="#795757" font-family="Aptos Narrow,Aptos Narrow_MSFontService,sans-serif" font-weight="400" font-stretch="semi-condensed" font-size="41" transform="matrix(1 0 0 1 4868.78 2014)">Jul</text></g><g><text fill="#795757" font-family="Aptos Narrow,Aptos Narrow_MSFontService,sans-serif" font-weight="400" font-stretch="semi-condensed" font-size="41" transform="matrix(1 0 0 1 4952.93 2014)">Sep</text></g><g><text fill="#795757" font-family="Aptos Narrow,Aptos Narrow_MSFontService,sans-serif" font-weight="400" font-stretch="semi-condensed" font-size="41" transform="matrix(1 0 0 1 5045.65 2014)">Nov</text></g><g><text fill="#795757" font-family="Aptos Narrow,Aptos Narrow_MSFontService,sans-serif" font-weight="400" font-stretch="semi-condensed" font-size="41" transform="matrix(1 0 0 1 5144.76 2014)">Jan</text></g><g><text fill="#795757" font-family="Aptos Narrow,Aptos Narrow_MSFontService,sans-serif" font-weight="400" font-stretch="semi-condensed" font-size="41" transform="matrix(1 0 0 1 5233.88 2014)">Mar</text></g><g><text fill="#795757" font-family="Aptos Narrow,Aptos Narrow_MSFontService,sans-serif" font-weight="400" font-stretch="semi-condensed" font-size="41" transform="matrix(1 0 0 1 5325.36 2014)">May</text></g><g><text fill="#795757" font-family="Aptos Narrow,Aptos Narrow_MSFontService,sans-serif" font-weight="400" font-stretch="semi-condensed" font-size="41" transform="matrix(1 0 0 1 5430.68 2014)">Jul</text></g><g><text fill="#795757" font-family="Aptos Narrow,Aptos Narrow_MSFontService,sans-serif" font-weight="400" font-stretch="semi-condensed" font-size="41" transform="matrix(1 0 0 1 3701.6 2094)">2019</text></g><g><text fill="#795757" font-family="Aptos Narrow,Aptos Narrow_MSFontService,sans-serif" font-weight="400" font-stretch="semi-condensed" font-size="41" transform="matrix(1 0 0 1 4263.49 2094)">2020</text></g><g><text fill="#795757" font-family="Aptos Narrow,Aptos Narrow_MSFontService,sans-serif" font-weight="400" font-stretch="semi-condensed" font-size="41" transform="matrix(1 0 0 1 4825.39 2094)">2021</text></g><g><text fill="#795757" font-family="Aptos Narrow,Aptos Narrow_MSFontService,sans-serif" font-weight="400" font-stretch="semi-condensed" font-size="41" transform="matrix(1 0 0 1 5293.63 2094)">2022</text></g><g><text fill="#795757" font-family="Aptos Narrow,Aptos Narrow_MSFontService,sans-serif" font-weight="400" font-stretch="semi-condensed" font-size="46" transform="matrix(6.12323e-17 -1 1 6.12323e-17 3334.97 1513)">USD</text></g><g><text fill="#795757" font-family="Aptos Narrow,Aptos Narrow_MSFontService,sans-serif" font-weight="400" font-stretch="semi-condensed" font-size="64" transform="matrix(1 0 0 1 4284.12 919)">Total Sales Over Time</text></g><g><path d="M5594 1422 5682 1422" stroke="#A47E3B" stroke-width="10.3125" stroke-linecap="round" stroke-linejoin="round" stroke-miterlimit="10" fill="none" fill-rule="evenodd"/></g><g><text fill="#795757" font-family="Aptos Narrow,Aptos Narrow_MSFontService,sans-serif" font-weight="400" font-stretch="semi-condensed" font-size="41" transform="matrix(1 0 0 1 5691.74 1433)">Arabica</text></g><g><path d="M5594 1499 5682 1499" stroke="#61481C" stroke-width="10.3125" stroke-linecap="round" stroke-linejoin="round" stroke-miterlimit="10" fill="none" fill-rule="evenodd"/></g><g><text fill="#795757" font-family="Aptos Narrow,Aptos Narrow_MSFontService,sans-serif" font-weight="400" font-stretch="semi-condensed" font-size="41" transform="matrix(1 0 0 1 5691.74 1511)">Excelsa</text></g><g><path d="M5594 1577 5682 1577" stroke="#C65D7B" stroke-width="10.3125" stroke-linecap="round" stroke-linejoin="round" stroke-miterlimit="10" fill="none" fill-rule="evenodd"/></g><g><text fill="#795757" font-family="Aptos Narrow,Aptos Narrow_MSFontService,sans-serif" font-weight="400" font-stretch="semi-condensed" font-size="41" transform="matrix(1 0 0 1 5691.74 1588)">Liberica</text></g><g><path d="M5594 1654 5682 1654" stroke="#E6B325" stroke-width="10.3125" stroke-linecap="round" stroke-linejoin="round" stroke-miterlimit="10" fill="none" fill-rule="evenodd"/></g><g><text fill="#795757" font-family="Aptos Narrow,Aptos Narrow_MSFontService,sans-serif" font-weight="400" font-stretch="semi-condensed" font-size="41" transform="matrix(1 0 0 1 5691.74 1665)">Robusta</text></g><rect x="3235.5" y="825.5" width="2640" height="1306" stroke="#D9D9D9" stroke-width="3.4375" stroke-linejoin="round" stroke-miterlimit="10" fill="none"/></g></svg>