<svg width="2643" height="1309" xmlns="http://www.w3.org/2000/svg" xmlns:xlink="http://www.w3.org/1999/xlink" xml:space="preserve" overflow="hidden"><defs><clipPath id="clip0"><rect x="3234" y="824" width="2643" height="1309"/></clipPath></defs><g clip-path="url(#clip0)" transform="translate(-3234 -824)"><rect x="3235" y="825" width="2640" height="1306" fill="#FFF0D1"/><g><path d="M3483.5 1843.56 5522.5 1843.56M3483.5 1737.56 5522.5 1737.56M3483.5 1631.55 5522.5 1631.55M3483.5 1525.55 5522.5 1525.55M3483.5 1419.55 5522.5 1419.55M3483.5 1312.54 5522.5 1312.54M3483.5 1206.54 5522.5 1206.54M3483.5 1100.54 5522.5 1100.54M3483.5 994.5 5522.5 994.5" stroke="#D9D9D9" stroke-width="3.4375" stroke-linejoin="round" stroke-miterlimit="10" fill="none"/></g><g><path d="M3483.5 1949.5 5522.5 1949.5" stroke="#D9D9D9" stroke-width="3.4375" stroke-linejoin="round" stroke-miterlimit="10" fill="none" fill-rule="evenodd"/></g><g><path d="M3483.5 1949.5 3483.5 2028.5M4039.63 1949.5 4039.63 2028.5M4595.65 1949.5 4595.65 2028.5M5151.67 1949.5 5151.67 2028.5M5522.5 1949.5 5522.5 2028.5" stroke="#D9D9D9" stroke-width="3.4375" stroke-linejoin="round" stroke-miterlimit="10" fill="none"/></g><g><path d="M3483.5 2028.5 3483.5 2108.5M4039.63 2028.5 4039.63 2108.5M4595.65 2028.5 4595.65 2108.5M5151.67 2028.5 5151.67 2108.5M5522.5 2028.5 5522.5 2108.5" stroke="#D9D9D9" stroke-width="3.4375" stroke-linejoin="round" stroke-miterlimit="10" fill="none"/></g><g><path d="M3507 1751.06 3553.12 1682.06 3599.12 1711.06 3645.12 1623.05 3692.12 1892.06 3738.12 1776.06 3785.12 1583.05 3831.13 1594.05 3877.13 1760.06 3924.13 1629.05 3970.13 1617.05 4016.13 1667.05 4063.13 1899.06 4109.13 1159.04 4155.14 1811.06 4202.14 1920.06 4248.14 1679.06 4294.14 1329.04 4341.14 1493.05 4387.14 1925 4433.15 1815.06 4480.15 1550.05 4526.15 1403.05 4572.15 1847.06 4619.15 1675.05 4665.15 1586.05 4711.15 1506.05 4758.16 1841.06 4804.16 1700.06 4851.16 1493.05 4897.16 1834.06 4943.16 1644.05 4990.16 1058 5036.17 1632.05 5082.17 1606.05 5129.17 1526.05 5175.17 1830.06 5221.17 1827.06 5268.17 1655.05 5314.17 1739.06 5360.18 1744.06 5407.18 1758.06 5453.18 1687.06 5500 1826.06" stroke="#A47E3B" stroke-width="10.3125" stroke-linecap="round" stroke-linejoin="round" stroke-miterlimit="10" fill="none"/></g><g><path d="M3507 1625.05 3553.12 1812.06 3599.12 1579.05 3645.12 1227 3692.12 1861.06 3738.12 1230.04 3785.12 1659.05 3831.13 1874.06 3877.13 1773.06 3924.13 1786.06 3970.13 1882.06 4016.13 1391.05 4063.13 1879.06 4109.13 1494.05 4155.14 1661.05 4202.14 1581.05 4248.14 1375.05 4294.14 1570.05 4341.14 1708.06 4387.14 1867.06 4433.15 1742.06 4480.15 1394.05 4526.15 1798.06 4572.15 1435.05 4619.15 1801.06 4665.15 1648.05 4711.15 1453.05 4758.16 1692.06 4804.16 1808.06 4851.16 1805.06 4897.16 1532.05 4943.16 1643.05 4990.16 1515.05 5036.17 1673.05 5082.17 1349.04 5129.17 1792.06 5175.17 1773.06 5221.17 1807.06 5268.17 1763.06 5314.17 1642.05 5360.18 1724.06 5407.18 1497.05 5453.18 1688.06 5500 1905" stroke="#61481C" stroke-width="10.3125" stroke-linecap="round" stroke-linejoin="round" stroke-miterlimit="10" fill="none"/></g><g><path d="M3507 1723.06 3553.12 1489.05 3599.12 1609.05 3645.12 1383.05 3692.12 1744.06 3738.12 1768.06 3785.12 1754.06 3831.13 1807.06 3877.13 1483.05 3924.13 1721.06 3970.13 1577.05 4016.13 1751.06 4063.13 1658.05 4109.13 1743.06 4155.14 1651.05 4202.14 1793.06 4248.14 1861.06 4294.14 1572.05 4341.14 1699.06 4387.14 1885.06 4433.15 1855.06 4480.15 1482.05 4526.15 1581.05 4572.15 1849.06 4619.15 1653.05 4665.15 1682.06 4711.15 1520.05 4758.16 1361.04 4804.16 1666.05 4851.16 1727.06 4897.16 1884.06 4943.16 1816.06 4990.16 1767.06 5036.17 1329.04 5082.17 1379.05 5129.17 1538.05 5175.17 1055 5221.17 1852.06 5268.17 1459.05 5314.17 1855.06 5360.18 1639.05 5407.18 1769.06 5453.18 1662.05 5500 1933" stroke="#C65D7B" stroke-width="10.3125" stroke-linecap="round" stroke-linejoin="round" stroke-miterlimit="10" fill="none"/></g><g><path d="M3507 1819.06 3553.12 1767.06 3599.12 1815.06 3645.12 1781.06 3692.12 1877.06 3738.12 1554.05 3785.12 1736.06 3831.13 1773.06 3877.13 1427 3924.13 1723.06 3970.13 1847.06 4016.13 1726.06 4063.13 1759.06 4109.13 1493.05 4155.14 1704.06 4202.14 1695.06 4248.14 1886.06 4294.14 1800.06 4341.14 1510.05 4387.14 1801.06 4433.15 1628.05 4480.15 1764.06 4526.15 1839.06 4572.15 1867.06 4619.15 1779.06 4665.15 1864.06 4711.15 1681.06 4758.16 1836.06 4804.16 1660.05 4851.16 1855.06 4897.16 1738.06 4943.16 1552.05 4990.16 1714.06 5036.17 1677.05 5082.17 1748.06 5129.17 1724.06 5175.17 1794.06 5221.17 1892 5268.17 1526.05 5314.17 1737.06 5360.18 1626.05 5407.18 1547.05 5453.18 1799.06 5500 1874.06" stroke="#E6B325" stroke-width="10.3125" stroke-linecap="round" stroke-linejoin="round" stroke-miterlimit="10" fill="none"/></g><g><text fill="#795757" font-family="Aptos Narrow,Aptos Narrow_MSFontService,sans-serif" font-weight="400" font-stretch="semi-condensed" font-size="41" transform="matrix(1 0 0 1 3403.47 1961)">$0</text></g><g><text fill="#795757" font-family="Aptos Narrow,Aptos Narrow_MSFontService,sans-serif" font-weight="400" font-stretch="semi-condensed" font-size="41" transform="matrix(1 0 0 1 3361.67 1855)">$100</text></g><g><text fill="#795757" font-family="Aptos Narrow,Aptos Narrow_MSFontService,sans-serif" font-weight="400" font-stretch="semi-condensed" font-size="41" transform="matrix(1 0 0 1 3361.67 1749)">$200</text></g><g><text fill="#795757" font-family="Aptos Narrow,Aptos Narrow_MSFontService,sans-serif" font-weight="400" font-stretch="semi-condensed" font-size="41" transform="matrix(1 0 0 1 3361.67 1643)">$300</text></g><g><text fill="#795757" font-family="Aptos Narrow,Aptos Narrow_MSFontService,sans-serif" font-weight="400" font-stretch="semi-condensed" font-size="41" transform="matrix(1 0 0 1 3361.67 1537)">$400</text></g><g><text fill="#795757" font-family="Aptos Narrow,Aptos Narrow_MSFontService,sans-serif" font-weight="400" font-stretch="semi-condensed" font-size="41" transform="matrix(1 0 0 1 3361.67 1431)">$500</text></g><g><text fill="#795757" font-family="Aptos Narrow,Aptos Narrow_MSFontService,sans-serif" font-weight="400" font-stretch="semi-condensed" font-size="41" transform="matrix(1 0 0 1 3361.67 1325)">$600</text></g><g><text fill="#795757" font-family="Aptos Narrow,Aptos Narrow_MSFontService,sans-serif" font-weight="400" font-stretch="semi-condensed" font-size="41" transform="matrix(1 0 0 1 3361.67 1219)">$700</text></g><g><text fill="#795757" font-family="Aptos Narrow,Aptos Narrow_MSFontService,sans-serif" font-weight="400" font-stretch="semi-condensed" font-size="41" transform="matrix(1 0 0 1 3361.67 1113)">$800</text></g><g><text fill="#795757" font-family="Aptos Narrow,Aptos Narrow_MSFontService,sans-serif" font-weight="400" font-stretch="semi-condensed" font-size="41" transform="matrix(1 0 0 1 3361.67 1007)">$900</text></g><g><text fill="#795757" font-family="Aptos Narrow,Aptos Narrow_MSFontService,sans-serif" font-weight="400" font-stretch="semi-condensed" font-size="41" transform="matrix(1 0 0 1 3479.74 2014)">Jan</text></g><g><text fill="#795757" font-family="Aptos Narrow,Aptos Narrow_MSFontService,sans-serif" font-weight="400" font-stretch="semi-condensed" font-size="41" transform="matrix(1 0 0 1 3567.91 2014)">Mar</text></g><g><text fill="#795757" font-family="Aptos Narrow,Aptos Narrow_MSFontService,sans-serif" font-weight="400" font-stretch="semi-condensed" font-size="41" transform="matrix(1 0 0 1 3658.44 2014)">May</text></g><g><text fill="#795757" font-family="Aptos Narrow,Aptos Narrow_MSFontService,sans-serif" font-weight="400" font-stretch="semi-condensed" font-size="41" transform="matrix(1 0 0 1 3762.81 2014)">Jul</text></g><g><text fill="#795757" font-family="Aptos Narrow,Aptos Narrow_MSFontService,sans-serif" font-weight="400" font-stretch="semi-condensed" font-size="41" transform="matrix(1 0 0 1 3846.01 2014)">Sep</text></g><g><text fill="#795757" font-family="Aptos Narrow,Aptos Narrow_MSFontService,sans-serif" font-weight="400" font-stretch="semi-condensed" font-size="41" transform="matrix(1 0 0 1 3937.78 2014)">Nov</text></g><g><text fill="#795757" font-family="Aptos Narrow,Aptos Narrow_MSFontService,sans-serif" font-weight="400" font-stretch="semi-condensed" font-size="41" transform="matrix(1 0 0 1 4035.93 2014)">Jan</text></g><g><text fill="#795757" font-family="Aptos Narrow,Aptos Narrow_MSFontService,sans-serif" font-weight="400" font-stretch="semi-condensed" font-size="41" transform="matrix(1 0 0 1 4124.1 2014)">Mar</text></g><g><text fill="#795757" font-family="Aptos Narrow,Aptos Narrow_MSFontService,sans-serif" font-weight="400" font-stretch="semi-condensed" font-size="41" transform="matrix(1 0 0 1 4214.64 2014)">May</text></g><g><text fill="#795757" font-family="Aptos Narrow,Aptos Narrow_MSFontService,sans-serif" font-weight="400" font-stretch="semi-condensed" font-size="41" transform="matrix(1 0 0 1 4319 2014)">Jul</text></g><g><text fill="#795757" font-family="Aptos Narrow,Aptos Narrow_MSFontService,sans-serif" font-weight="400" font-stretch="semi-condensed" font-size="41" transform="matrix(1 0 0 1 4402.2 2014)">Sep</text></g><g><text fill="#795757" font-family="Aptos Narrow,Aptos Narrow_MSFontService,sans-serif" font-weight="400" font-stretch="semi-condensed" font-size="41" transform="matrix(1 0 0 1 4493.97 2014)">Nov</text></g><g><text fill="#795757" font-family="Aptos Narrow,Aptos Narrow_MSFontService,sans-serif" font-weight="400" font-stretch="semi-condensed" font-size="41" transform="matrix(1 0 0 1 4592.13 2014)">Jan</text></g><g><text fill="#795757" font-family="Aptos Narrow,Aptos Narrow_MSFontService,sans-serif" font-weight="400" font-stretch="semi-condensed" font-size="41" transform="matrix(1 0 0 1 4680.3 2014)">Mar</text></g><g><text fill="#795757" font-family="Aptos Narrow,Aptos Narrow_MSFontService,sans-serif" font-weight="400" font-stretch="semi-condensed" font-size="41" transform="matrix(1 0 0 1 4770.83 2014)">May</text></g><g><text fill="#795757" font-family="Aptos Narrow,Aptos Narrow_MSFontService,sans-serif" font-weight="400" font-stretch="semi-condensed" font-size="41" transform="matrix(1 0 0 1 4875.2 2014)">Jul</text></g><g><text fill="#795757" font-family="Aptos Narrow,Aptos Narrow_MSFontService,sans-serif" font-weight="400" font-stretch="semi-condensed" font-size="41" transform="matrix(1 0 0 1 4958.4 2014)">Sep</text></g><g><text fill="#795757" font-family="Aptos Narrow,Aptos Narrow_MSFontService,sans-serif" font-weight="400" font-stretch="semi-condensed" font-size="41" transform="matrix(1 0 0 1 5050.17 2014)">Nov</text></g><g><text fill="#795757" font-family="Aptos Narrow,Aptos Narrow_MSFontService,sans-serif" font-weight="400" font-stretch="semi-condensed" font-size="41" transform="matrix(1 0 0 1 5148.32 2014)">Jan</text></g><g><text fill="#795757" font-family="Aptos Narrow,Aptos Narrow_MSFontService,sans-serif" font-weight="400" font-stretch="semi-condensed" font-size="41" transform="matrix(1 0 0 1 5236.49 2014)">Mar</text></g><g><text fill="#795757" font-family="Aptos Narrow,Aptos Narrow_MSFontService,sans-serif" font-weight="400" font-stretch="semi-condensed" font-size="41" transform="matrix(1 0 0 1 5327.03 2014)">May</text></g><g><text fill="#795757" font-family="Aptos Narrow,Aptos Narrow_MSFontService,sans-serif" font-weight="400" font-stretch="semi-condensed" font-size="41" transform="matrix(1 0 0 1 5431.39 2014)">Jul</text></g><g><text fill="#795757" font-family="Aptos Narrow,Aptos Narrow_MSFontService,sans-serif" font-weight="400" font-stretch="semi-condensed" font-size="41" transform="matrix(1 0 0 1 3719.65 2094)">2019</text></g><g><text fill="#795757" font-family="Aptos Narrow,Aptos Narrow_MSFontService,sans-serif" font-weight="400" font-stretch="semi-condensed" font-size="41" transform="matrix(1 0 0 1 4275.84 2094)">2020</text></g><g><text fill="#795757" font-family="Aptos Narrow,Aptos Narrow_MSFontService,sans-serif" font-weight="400" font-stretch="semi-condensed" font-size="41" transform="matrix(1 0 0 1 4832.04 2094)">2021</text></g><g><text fill="#795757" font-family="Aptos Narrow,Aptos Narrow_MSFontService,sans-serif" font-weight="400" font-stretch="semi-condensed" font-size="41" transform="matrix(1 0 0 1 5295.53 2094)">2022</text></g><g><text fill="#795757" font-family="Aptos Narrow,Aptos Narrow_MSFontService,sans-serif" font-weight="400" font-stretch="semi-condensed" font-size="46" transform="matrix(6.12323e-17 -1 1 6.12323e-17 3334.97 1513)">USD</text></g><g><text fill="#3B3030" font-family="Aptos Display,Aptos Display_MSFontService,sans-serif" font-weight="700" font-size="64" transform="matrix(1 0 0 1 4261.87 919)">Total Sales Over Time</text></g><g><path d="M5594 1422 5682 1422" stroke="#A47E3B" stroke-width="10.3125" stroke-linecap="round" stroke-linejoin="round" stroke-miterlimit="10" fill="none" fill-rule="evenodd"/></g><g><text fill="#795757" font-family="Aptos Narrow,Aptos Narrow_MSFontService,sans-serif" font-weight="400" font-stretch="semi-condensed" font-size="41" transform="matrix(1 0 0 1 5691.74 1433)">Arabica</text></g><g><path d="M5594 1499 5682 1499" stroke="#61481C" stroke-width="10.3125" stroke-linecap="round" stroke-linejoin="round" stroke-miterlimit="10" fill="none" fill-rule="evenodd"/></g><g><text fill="#795757" font-family="Aptos Narrow,Aptos Narrow_MSFontService,sans-serif" font-weight="400" font-stretch="semi-condensed" font-size="41" transform="matrix(1 0 0 1 5691.74 1511)">Excelsa</text></g><g><path d="M5594 1577 5682 1577" stroke="#C65D7B" stroke-width="10.3125" stroke-linecap="round" stroke-linejoin="round" stroke-miterlimit="10" fill="none" fill-rule="evenodd"/></g><g><text fill="#795757" font-family="Aptos Narrow,Aptos Narrow_MSFontService,sans-serif" font-weight="400" font-stretch="semi-condensed" font-size="41" transform="matrix(1 0 0 1 5691.74 1588)">Liberica</text></g><g><path d="M5594 1654 5682 1654" stroke="#E6B325" stroke-width="10.3125" stroke-linecap="round" stroke-linejoin="round" stroke-miterlimit="10" fill="none" fill-rule="evenodd"/></g><g><text fill="#795757" font-family="Aptos Narrow,Aptos Narrow_MSFontService,sans-serif" font-weight="400" font-stretch="semi-condensed" font-size="41" transform="matrix(1 0 0 1 5691.74 1665)">Robusta</text></g><rect x="3235.5" y="825.5" width="2640" height="1306" stroke="#D9D9D9" stroke-width="3.4375" stroke-linejoin="round" stroke-miterlimit="10" fill="none"/></g></svg>