<svg width="2643" height="1034" xmlns="http://www.w3.org/2000/svg" xmlns:xlink="http://www.w3.org/1999/xlink" xml:space="preserve" overflow="hidden"><defs><clipPath id="clip0"><rect x="1415" y="137" width="2643" height="1034"/></clipPath></defs><g clip-path="url(#clip0)" transform="translate(-1415 -137)"><rect x="1416" y="138" width="2640" height="1031" fill="#FFF0D1"/><g><path d="M1974.57 307.5 1974.57 1062.5M2203.57 307.5 2203.57 1062.5M2431.58 307.5 2431.58 1062.5M2660.59 307.5 2660.59 1062.5M2889.6 307.5 2889.6 1062.5M3118.6 307.5 3118.6 1062.5M3347.61 307.5 3347.61 1062.5M3575.5 307.5 3575.5 1062.5" stroke="#D9D9D9" stroke-width="3.4375" stroke-linejoin="round" stroke-miterlimit="10" fill="none"/></g><g><rect x="1746" y="892" width="128" height="90.0001" fill="#CC2B52"/></g><g><rect x="1746" y="641" width="306" height="89" fill="#AF1740"/></g><g><path d="M3376.11 478.016 1746 478.016 1746 389.013 3376.11 389.013Z" fill="#740938"/></g><g><path d="M0 0 0.000360892 755" stroke="#D9D9D9" stroke-width="3.4375" stroke-linejoin="round" stroke-miterlimit="10" fill="none" fill-rule="evenodd" transform="matrix(1 0 0 -1 1745.5 1062.5)"/></g><g><text fill="#795757" font-family="Aptos Narrow,Aptos Narrow_MSFontService,sans-serif" font-weight="400" font-stretch="semi-condensed" font-size="41" transform="matrix(1 0 0 1 1901.18 951)">$2,799</text></g><g><text fill="#795757" font-family="Aptos Narrow,Aptos Narrow_MSFontService,sans-serif" font-weight="400" font-stretch="semi-condensed" font-size="41" transform="matrix(1 0 0 1 2079.56 699)">$6,697</text></g><g><text fill="#795757" font-family="Aptos Narrow,Aptos Narrow_MSFontService,sans-serif" font-weight="400" font-stretch="semi-condensed" font-size="41" transform="matrix(1 0 0 1 3403.9 447)">$35,639</text></g><g><text fill="#795757" font-family="Aptos Narrow,Aptos Narrow_MSFontService,sans-serif" font-weight="400" font-stretch="semi-condensed" font-size="41" transform="matrix(1 0 0 1 1724.73 1128)">$0</text></g><g><text fill="#795757" font-family="Aptos Narrow,Aptos Narrow_MSFontService,sans-serif" font-weight="400" font-stretch="semi-condensed" font-size="41" transform="matrix(1 0 0 1 1916.81 1128)">$5,000</text></g><g><text fill="#795757" font-family="Aptos Narrow,Aptos Narrow_MSFontService,sans-serif" font-weight="400" font-stretch="semi-condensed" font-size="41" transform="matrix(1 0 0 1 2135.15 1128)">$10,000</text></g><g><text fill="#795757" font-family="Aptos Narrow,Aptos Narrow_MSFontService,sans-serif" font-weight="400" font-stretch="semi-condensed" font-size="41" transform="matrix(1 0 0 1 2363.94 1128)">$15,000</text></g><g><text fill="#795757" font-family="Aptos Narrow,Aptos Narrow_MSFontService,sans-serif" font-weight="400" font-stretch="semi-condensed" font-size="41" transform="matrix(1 0 0 1 2592.73 1128)">$20,000</text></g><g><text fill="#795757" font-family="Aptos Narrow,Aptos Narrow_MSFontService,sans-serif" font-weight="400" font-stretch="semi-condensed" font-size="41" transform="matrix(1 0 0 1 2821.52 1128)">$25,000</text></g><g><text fill="#795757" font-family="Aptos Narrow,Aptos Narrow_MSFontService,sans-serif" font-weight="400" font-stretch="semi-condensed" font-size="41" transform="matrix(1 0 0 1 3050.31 1128)">$30,000</text></g><g><text fill="#795757" font-family="Aptos Narrow,Aptos Narrow_MSFontService,sans-serif" font-weight="400" font-stretch="semi-condensed" font-size="41" transform="matrix(1 0 0 1 3279.1 1128)">$35,000</text></g><g><text fill="#795757" font-family="Aptos Narrow,Aptos Narrow_MSFontService,sans-serif" font-weight="400" font-stretch="semi-condensed" font-size="41" transform="matrix(1 0 0 1 3507.89 1128)">$40,000</text></g><g><text fill="#795757" font-family="Aptos Narrow,Aptos Narrow_MSFontService,sans-serif" font-weight="400" font-stretch="semi-condensed" font-size="41" transform="matrix(1 0 0 1 1446.04 948)">United Kingdom</text></g><g><text fill="#795757" font-family="Aptos Narrow,Aptos Narrow_MSFontService,sans-serif" font-weight="400" font-stretch="semi-condensed" font-size="41" transform="matrix(1 0 0 1 1592.53 697)">Ireland</text></g><g><text fill="#795757" font-family="Aptos Narrow,Aptos Narrow_MSFontService,sans-serif" font-weight="400" font-stretch="semi-condensed" font-size="41" transform="matrix(1 0 0 1 1486.42 445)">United States</text></g><g><text fill="#3B3030" font-family="Aptos Display,Aptos Display_MSFontService,sans-serif" font-weight="700" font-size="64" transform="matrix(1 0 0 1 2503.75 232)">Sales By Country</text></g><g><rect x="3716" y="624" width="23" height="23.0001" fill="#CC2B52"/></g><g><text fill="#795757" font-family="Aptos Narrow,Aptos Narrow_MSFontService,sans-serif" font-weight="400" font-stretch="semi-condensed" font-size="41" transform="matrix(1 0 0 1 3748.34 647)">United Kingdom</text></g><g><rect x="3716" y="702" width="23" height="22" fill="#AF1740"/></g><g><text fill="#795757" font-family="Aptos Narrow,Aptos Narrow_MSFontService,sans-serif" font-weight="400" font-stretch="semi-condensed" font-size="41" transform="matrix(1 0 0 1 3748.34 724)">Ireland</text></g><g><rect x="3716" y="779" width="23" height="23.0001" fill="#740938"/></g><g><text fill="#795757" font-family="Aptos Narrow,Aptos Narrow_MSFontService,sans-serif" font-weight="400" font-stretch="semi-condensed" font-size="41" transform="matrix(1 0 0 1 3748.34 802)">United States</text></g><rect x="1416.5" y="138.5" width="2640" height="1031" stroke="#D9D9D9" stroke-width="3.4375" stroke-linejoin="round" stroke-miterlimit="10" fill="none"/></g></svg>